<svg width="729" height="136" viewBox="0 0 729 136" fill="none" xmlns="http://www.w3.org/2000/svg">
<g clip-path="url(#clip0_2442_2884)">
<path d="M227.454 0H245.1L266.454 44.7807V0H277.801V56.8947H261.026L238.961 9.67719V56.8947H227.464V0H227.454Z" fill="white"/>
<path d="M304.185 16.2085C318.601 16.2085 324.83 25.9656 324.83 37.061C324.83 48.1563 318.371 58.3128 303.955 58.3128C292.608 58.3128 283.63 51.3121 283.63 37.3805C283.63 27.7832 288.519 16.2085 304.195 16.2085H304.185ZM304.345 50.2135C309.464 50.2135 312.933 47.1476 312.933 36.6016C312.933 31.3285 311.913 24.0082 304.185 24.0082C295.677 24.0082 295.597 33.8452 295.597 37.4704C295.597 46.3586 298.586 50.2235 304.345 50.2235V50.2135Z" fill="white"/>
<path d="M330.808 26.9144C330.808 25.0269 330.498 19.2845 330.259 16.9975H341.206L341.446 24.6274C342.945 21.2419 345.545 16.4382 354.992 16.9176V27.3838C343.175 26.2852 342.466 32.3372 342.466 37.3006V56.8947H330.808V26.9144Z" fill="white"/>
<path d="M387.784 56.3454C384.005 57.3641 380.616 57.6038 378.727 57.6038C366.989 57.6038 366.989 50.2036 366.989 46.8979V25.0968H359.351V17.387H366.989V9.5973L378.567 5.34293V17.387H388.024V25.0968H378.567V43.043C378.647 46.6682 378.647 48.9452 383.845 48.9452C385.575 48.9452 386.365 48.8653 387.784 48.7055V56.3354V56.3454Z" fill="white"/>
<path d="M394.952 0.079895H406.53V22.5901C407.869 20.7026 410.789 16.608 418.037 16.608C423.945 16.608 427.724 19.5242 429.614 21.9609C431.033 23.9283 432.213 27.5535 432.213 32.7467V56.9047H420.636V33.1361C420.636 30.8492 420.636 24.4776 414.098 24.4776C410.789 24.4776 406.61 26.3651 406.61 32.5869L406.69 56.9047H394.952V0.079895Z" fill="white"/>
<path d="M447.659 17.1573L454.988 47.1376L463.416 17.1573H476.252L484.6 47.1376L492.398 17.1573H503.976L490.349 56.8947H477.662L469.474 27.4637L461.126 56.8947H448.289L435.292 17.1573H447.659Z" fill="white"/>
<path d="M515.813 39.9771C515.813 42.5737 515.813 50.603 523.931 50.603C526.85 50.603 529.759 49.5045 530.859 45.0903H541.496C541.336 46.9778 540.946 50.3633 537.717 53.7489C534.798 56.8148 529.599 58.3927 523.771 58.3927C520.382 58.3927 513.923 57.7635 509.744 53.4393C506.125 49.6643 504.625 44.3114 504.625 37.9398C504.625 31.5682 506.205 23.7785 512.893 19.1347C515.963 17.0874 519.752 15.8291 524.081 15.8291C529.749 15.8291 536.528 18.0361 540.157 25.4263C542.836 30.8592 542.676 36.6815 542.516 39.9871H515.813V39.9771ZM530.629 32.6568C530.629 30.8492 530.469 23.7586 523.701 23.7586C518.582 23.7586 516.453 28.0029 516.213 32.6568H530.629Z" fill="white"/>
<path d="M558.362 45.4099C558.522 47.9266 560.092 50.8427 564.98 50.8427C569.159 50.8427 571.129 48.4858 571.129 46.119C571.129 44.3114 570.179 42.8932 565.61 41.6349L558.362 39.6675C555.133 38.7188 548.275 36.7514 548.275 28.6521C548.275 20.5528 555.363 16.2185 565.69 16.2185C573.888 16.2185 580.507 19.9935 580.817 27.943H570.179C569.869 23.5388 566.32 23.2193 564.511 23.2193C561.361 23.2193 558.992 24.7173 558.992 27.1541C558.992 29.8305 560.961 30.3798 564.431 31.3285L571.599 33.2959C578.847 35.2633 582.236 38.9584 582.236 44.3912C582.236 51.2422 576.328 58.0831 563.961 58.0831C558.842 58.0831 553.953 56.9846 550.334 53.2096C547.735 50.4532 547.495 47.3074 547.415 45.4199H558.362V45.4099Z" fill="white"/>
<path d="M613.029 56.3454C609.25 57.3641 605.86 57.6038 603.971 57.6038C592.234 57.6038 592.234 50.2036 592.234 46.8979V25.0968H584.596V17.387H592.234V9.5973L603.811 5.34293V17.387H613.269V25.0968H603.811V43.043C603.891 46.6682 603.891 48.9452 609.09 48.9452C610.819 48.9452 611.609 48.8653 613.029 48.7055V56.3354V56.3454Z" fill="white"/>
<path d="M628.095 39.9771C628.095 42.5737 628.095 50.603 636.213 50.603C639.132 50.603 642.042 49.5045 643.151 45.0903H653.789C653.629 46.9778 653.239 50.3633 650.01 53.7489C647.1 56.8148 641.892 58.3927 636.063 58.3927C632.674 58.3927 626.215 57.7635 622.036 53.4393C618.417 49.6643 616.918 44.3114 616.918 37.9398C616.918 31.5682 618.497 23.7785 625.186 19.1347C628.255 17.0874 632.044 15.8291 636.373 15.8291C642.042 15.8291 648.82 18.0361 652.449 25.4263C655.128 30.8592 654.968 36.6815 654.808 39.9871H628.105L628.095 39.9771ZM642.901 32.6568C642.901 30.8492 642.741 23.7586 635.973 23.7586C630.854 23.7586 628.725 28.0029 628.485 32.6568H642.901Z" fill="white"/>
<path d="M661.727 26.9144C661.727 25.0269 661.407 19.2845 661.177 16.9975H672.124L672.364 24.6274C673.864 21.2419 676.463 16.4382 685.911 16.9176V27.3838C674.094 26.2852 673.384 32.3372 673.384 37.3006V56.8947H661.727V26.9144Z" fill="white"/>
<path d="M691.579 24.2379C691.579 24.0781 691.579 19.7539 691.339 16.9975H702.527L702.847 22.9796C703.946 21.172 707.095 16.0587 715.763 16.0587C723.561 16.0587 726.871 20.7825 727.9 23.5388C728.77 25.9756 729 28.0229 729 35.4231V56.9047H717.103V32.1974C717.103 30.5396 717.103 29.1314 716.473 27.8631C715.603 26.1354 713.794 24.4776 710.805 24.4776C708.285 24.4776 705.996 25.656 704.736 27.5435C704.026 28.5622 703.316 30.5296 703.316 33.6055V56.8947H691.579V24.2379Z" fill="white"/>
<path d="M227.454 134.812V77.9868H235.652L257.007 127.491L278.831 77.9868H286.629V134.812H281.511V82.3211H281.351L259.606 134.812H254.487L232.743 82.5508H232.583V134.812H227.464H227.454Z" fill="white"/>
<path d="M299.696 116.166C299.856 124.585 303.715 131.666 313.403 131.666C318.991 131.666 323.64 127.651 324.83 122.218H329.789C327.349 131.666 321.441 135.99 311.903 135.99C300.086 135.99 294.567 125.833 294.567 115.058C294.567 104.282 300.476 94.1254 312.213 94.1254C325.45 94.1254 330.259 103.803 330.259 116.156H299.686L299.696 116.166ZM325.14 111.832C324.59 104.202 320.491 98.4497 312.303 98.4497C304.585 98.4497 300.486 104.901 299.856 111.832H325.15H325.14Z" fill="white"/>
<path d="M366.969 128.989L366.81 128.68C363.58 133.403 358.772 136 353.263 136C341.526 136 337.037 124.825 337.037 114.908C337.037 104.991 341.526 94.1354 353.263 94.1354C358.542 94.1354 364.05 96.6521 366.81 101.296L366.969 101.136V77.9968H371.698V125.923C371.698 128.989 371.938 132.145 372.088 134.822H367.199L366.959 128.999L366.969 128.989ZM354.053 98.4597C345.075 98.4597 342.156 106.799 342.156 114.359C342.156 121.919 344.285 131.676 353.343 131.676C363.66 131.676 366.82 123.097 366.82 114.129C366.82 106.1 363.27 98.4697 354.053 98.4697V98.4597Z" fill="white"/>
<path d="M387.924 83.899H382.406V77.9968H387.924V83.899ZM387.534 95.3139V134.822H382.805V95.3139H387.534Z" fill="white"/>
<path d="M424.555 107.428C424.165 101.366 420.306 98.4597 413.768 98.4597C406.52 98.4597 402.031 106.01 402.031 114.988C402.031 123.966 406.52 131.676 413.768 131.676C419.916 131.676 424.165 127.901 424.555 122.468H429.674C428.414 131.516 423.216 136 414.228 136C402.411 136 396.892 125.843 396.892 115.068C396.892 104.292 402.801 94.1354 414.538 94.1354C422.656 94.1354 429.274 99.0189 429.664 107.438H424.545L424.555 107.428Z" fill="white"/>
<path d="M443.38 83.899H437.862V77.9968H443.38V83.899ZM442.991 95.3139V134.822H438.262V95.3139H442.991Z" fill="white"/>
<path d="M459.607 134.812H454.878V104.202C454.878 101.126 454.638 97.9803 454.488 95.3039H459.377L459.617 101.126L459.776 101.286C462.536 96.4024 467.025 94.1254 472.143 94.1254C485.06 94.1254 486.09 105.54 486.09 110.104V134.812H481.361V109.315C481.361 102.464 477.422 98.4497 470.964 98.4497C463.166 98.4497 459.617 104.981 459.617 112.062V134.802L459.607 134.812Z" fill="white"/>
<path d="M498.687 116.166C498.847 124.585 502.706 131.666 512.393 131.666C517.982 131.666 522.631 127.651 523.821 122.218H528.779C526.34 131.666 520.431 135.99 510.894 135.99C499.077 135.99 493.558 125.833 493.558 115.058C493.558 104.282 499.467 94.1254 511.204 94.1254C524.44 94.1254 529.239 103.803 529.239 116.156H498.667L498.687 116.166ZM524.131 111.832C523.581 104.202 519.482 98.4497 511.294 98.4497C503.576 98.4497 499.477 104.901 498.847 111.832H524.141H524.131Z" fill="white"/>
<path d="M14.6564 20.4431L76.4011 134.942H110.693L39.3803 0.119995H0V134.942H14.6564V20.4431Z" fill="white"/>
<path d="M159.591 134.941H189.953V0.119837H159.641L123.949 64.245L89.9978 0.119837H55.2864L114.462 111.812L159.641 30.4097L159.591 134.941Z" fill="white"/>
<path d="M536.548 83.889C532.968 83.889 530.089 86.7652 530.089 90.3005C530.089 93.8358 532.968 96.752 536.548 96.752C540.127 96.752 542.976 93.8758 542.976 90.3005C542.976 86.7252 540.117 83.889 536.548 83.889ZM536.548 95.8332C533.488 95.8332 531.009 93.3564 531.009 90.3005C531.009 87.2445 533.478 84.8078 536.548 84.8078C539.617 84.8078 542.056 87.2845 542.056 90.3005C542.056 93.3165 539.597 95.8332 536.548 95.8332Z" fill="white"/>
<path d="M539.027 92.0182C538.967 91.2792 538.807 90.6301 538.037 90.4603V90.4403C538.827 90.1906 539.187 89.4316 539.187 88.5228C539.187 87.3144 538.417 86.5455 537.187 86.5455H534.088V94.1055H534.968V90.8797H537.107C537.957 90.8797 538.107 91.5089 538.207 92.2479C538.337 92.9869 538.207 93.8058 538.447 94.1154H539.427C539.057 93.5961 539.097 92.7672 539.037 92.0282L539.027 92.0182ZM536.787 90.0209H534.958V87.3843H537.137C537.957 87.3843 538.307 87.9336 538.307 88.6726C538.307 89.7712 537.607 90.0209 536.787 90.0209Z" fill="white"/>
</g>
<defs>
<clipPath id="clip0_2442_2884">
<rect width="729" height="136" fill="white"/>
</clipPath>
</defs>
</svg>
